<svg width="329" height="114" viewBox="0 0 329 114" fill="none" xmlns="http://www.w3.org/2000/svg">
<path d="M20.9688 19.4062C20.8021 17.9271 20.1146 16.7812 18.9062 15.9687C17.6979 15.1458 16.1771 14.7344 14.3438 14.7344C13.0313 14.7344 11.8958 14.9427 10.9375 15.3594C9.97917 15.7656 9.23438 16.3281 8.70313 17.0469C8.18229 17.7552 7.92188 18.5625 7.92188 19.4688C7.92188 20.2292 8.09896 20.8854 8.45313 21.4375C8.81771 21.9896 9.29167 22.4531 9.875 22.8281C10.4688 23.1927 11.1042 23.5 11.7813 23.75C12.4583 23.9896 13.1094 24.1875 13.7344 24.3437L16.8594 25.1562C17.8802 25.4062 18.9271 25.7448 20 26.1719C21.0729 26.599 22.0677 27.1615 22.9844 27.8594C23.901 28.5573 24.6406 29.4219 25.2031 30.4531C25.776 31.4844 26.0625 32.7187 26.0625 34.1562C26.0625 35.9687 25.5938 37.5781 24.6562 38.9844C23.7292 40.3906 22.3802 41.5 20.6094 42.3125C18.849 43.125 16.7188 43.5313 14.2187 43.5313C11.8229 43.5313 9.75 43.151 8 42.3906C6.25 41.6302 4.88021 40.5521 3.89063 39.1562C2.90104 37.75 2.35417 36.0833 2.25 34.1562H7.09375C7.1875 35.3125 7.5625 36.276 8.21875 37.0469C8.88542 37.8073 9.73438 38.375 10.7656 38.75C11.8073 39.1146 12.9479 39.2969 14.1875 39.2969C15.5521 39.2969 16.7656 39.0833 17.8281 38.6562C18.901 38.2187 19.7448 37.6146 20.3594 36.8437C20.974 36.0625 21.2813 35.151 21.2813 34.1094C21.2813 33.1615 21.0104 32.3854 20.4688 31.7812C19.9375 31.1771 19.2135 30.6771 18.2969 30.2812C17.3906 29.8854 16.3646 29.5365 15.2188 29.2344L11.4375 28.2031C8.875 27.5052 6.84375 26.4792 5.34375 25.125C3.85417 23.7708 3.10938 21.9792 3.10938 19.75C3.10938 17.9062 3.60938 16.2969 4.60938 14.9219C5.60938 13.5469 6.96354 12.4792 8.67188 11.7188C10.3802 10.9479 12.3073 10.5625 14.4531 10.5625C16.6198 10.5625 18.5313 10.9427 20.1875 11.7031C21.8542 12.4635 23.1667 13.5104 24.125 14.8437C25.0833 16.1667 25.5833 17.6875 25.625 19.4062H20.9688ZM30.107 43V19H34.7789V43H30.107ZM32.4664 15.2969C31.6539 15.2969 30.956 15.026 30.3727 14.4844C29.7997 13.9323 29.5133 13.276 29.5133 12.5156C29.5133 11.7448 29.7997 11.0885 30.3727 10.5469C30.956 9.99479 31.6539 9.71875 32.4664 9.71875C33.2789 9.71875 33.9716 9.99479 34.5445 10.5469C35.1279 11.0885 35.4195 11.7448 35.4195 12.5156C35.4195 13.276 35.1279 13.9323 34.5445 14.4844C33.9716 15.026 33.2789 15.2969 32.4664 15.2969ZM49.7766 52.5C47.8703 52.5 46.2297 52.25 44.8547 51.75C43.4901 51.25 42.3755 50.5885 41.5109 49.7656C40.6464 48.9427 40.0005 48.0417 39.5734 47.0625L43.5891 45.4062C43.8703 45.8646 44.2453 46.349 44.7141 46.8594C45.1932 47.3802 45.8391 47.8229 46.6516 48.1875C47.4745 48.5521 48.5318 48.7344 49.8234 48.7344C51.5943 48.7344 53.0578 48.3021 54.2141 47.4375C55.3703 46.5833 55.9484 45.2187 55.9484 43.3438V38.625H55.6516C55.3703 39.1354 54.9641 39.7031 54.4328 40.3281C53.912 40.9531 53.1932 41.4948 52.2766 41.9531C51.3599 42.4115 50.1672 42.6406 48.6984 42.6406C46.8026 42.6406 45.0943 42.1979 43.5734 41.3125C42.063 40.4167 40.8651 39.099 39.9797 37.3594C39.1047 35.6094 38.6672 33.4583 38.6672 30.9062C38.6672 28.3542 39.0995 26.1667 39.9641 24.3437C40.8391 22.5208 42.037 21.125 43.5578 20.1563C45.0786 19.1771 46.8026 18.6875 48.7297 18.6875C50.2193 18.6875 51.4224 18.9375 52.3391 19.4375C53.2557 19.9271 53.9693 20.5 54.4797 21.1562C55.0005 21.8125 55.4016 22.3906 55.6828 22.8906H56.0266V19H60.6047V43.5313C60.6047 45.5938 60.1255 47.2865 59.1672 48.6094C58.2089 49.9323 56.912 50.9115 55.2766 51.5469C53.6516 52.1823 51.8182 52.5 49.7766 52.5ZM49.7297 38.7656C51.0734 38.7656 52.2089 38.4531 53.1359 37.8281C54.0734 37.1927 54.7818 36.2865 55.2609 35.1094C55.7505 33.9219 55.9953 32.5 55.9953 30.8438C55.9953 29.2292 55.7557 27.8073 55.2766 26.5781C54.7974 25.349 54.0943 24.3906 53.1672 23.7031C52.2401 23.0052 51.0943 22.6562 49.7297 22.6562C48.3234 22.6562 47.1516 23.0208 46.2141 23.75C45.2766 24.4687 44.5682 25.4479 44.0891 26.6875C43.6203 27.9271 43.3859 29.3125 43.3859 30.8438C43.3859 32.4167 43.6255 33.7969 44.1047 34.9844C44.5839 36.1719 45.2922 37.099 46.2297 37.7656C47.1776 38.4323 48.3443 38.7656 49.7297 38.7656ZM70.1922 28.75V43H65.5203V19H70.0047V22.9062H70.3016C70.8536 21.6354 71.7182 20.6146 72.8953 19.8437C74.0828 19.0729 75.5776 18.6875 77.3797 18.6875C79.0151 18.6875 80.4474 19.0313 81.6766 19.7188C82.9057 20.3958 83.8589 21.4062 84.5359 22.75C85.213 24.0937 85.5516 25.7552 85.5516 27.7344V43H80.8797V28.2969C80.8797 26.5573 80.4266 25.1979 79.5203 24.2187C78.6141 23.2292 77.3693 22.7344 75.7859 22.7344C74.7026 22.7344 73.7391 22.9687 72.8953 23.4375C72.062 23.9062 71.4005 24.5937 70.9109 25.5C70.4318 26.3958 70.1922 27.4792 70.1922 28.75ZM100.762 43V19H105.434V43H100.762ZM103.121 15.2969C102.309 15.2969 101.611 15.026 101.027 14.4844C100.454 13.9323 100.168 13.276 100.168 12.5156C100.168 11.7448 100.454 11.0885 101.027 10.5469C101.611 9.99479 102.309 9.71875 103.121 9.71875C103.934 9.71875 104.626 9.99479 105.199 10.5469C105.783 11.0885 106.074 11.7448 106.074 12.5156C106.074 13.276 105.783 13.9323 105.199 14.4844C104.626 15.026 103.934 15.2969 103.121 15.2969ZM115.041 28.75V43H110.369V19H114.853V22.9062H115.15C115.702 21.6354 116.567 20.6146 117.744 19.8437C118.931 19.0729 120.426 18.6875 122.228 18.6875C123.864 18.6875 125.296 19.0313 126.525 19.7188C127.754 20.3958 128.707 21.4062 129.384 22.75C130.061 24.0937 130.4 25.7552 130.4 27.7344V43H125.728V28.2969C125.728 26.5573 125.275 25.1979 124.369 24.2187C123.463 23.2292 122.218 22.7344 120.634 22.7344C119.551 22.7344 118.588 22.9687 117.744 23.4375C116.91 23.9062 116.249 24.5937 115.759 25.5C115.28 26.3958 115.041 27.4792 115.041 28.75ZM150.813 43L143.751 19H148.579L153.282 36.625H153.516L158.235 19H163.063L167.751 36.5469H167.985L172.657 19H177.485L170.438 43H165.673L160.798 25.6719H160.438L155.563 43H150.813ZM180.569 43V19H185.241V43H180.569ZM182.928 15.2969C182.116 15.2969 181.418 15.026 180.834 14.4844C180.261 13.9323 179.975 13.276 179.975 12.5156C179.975 11.7448 180.261 11.0885 180.834 10.5469C181.418 9.99479 182.116 9.71875 182.928 9.71875C183.741 9.71875 184.433 9.99479 185.006 10.5469C185.59 11.0885 185.881 11.7448 185.881 12.5156C185.881 13.276 185.59 13.9323 185.006 14.4844C184.433 15.026 183.741 15.2969 182.928 15.2969ZM201.379 19V22.75H188.27V19H201.379ZM191.785 13.25H196.457V35.9531C196.457 36.8594 196.592 37.5417 196.863 38C197.134 38.4479 197.483 38.7552 197.91 38.9219C198.348 39.0781 198.822 39.1562 199.332 39.1562C199.707 39.1562 200.035 39.1302 200.316 39.0781C200.598 39.026 200.816 38.9844 200.973 38.9531L201.816 42.8125C201.546 42.9167 201.16 43.0208 200.66 43.125C200.16 43.2396 199.535 43.3021 198.785 43.3125C197.556 43.3333 196.41 43.1146 195.348 42.6562C194.285 42.1979 193.426 41.4896 192.77 40.5312C192.113 39.5729 191.785 38.3698 191.785 36.9219V13.25ZM210.384 28.75V43H205.712V11H210.322V22.9062H210.619C211.181 21.6146 212.041 20.5885 213.197 19.8281C214.353 19.0677 215.864 18.6875 217.728 18.6875C219.374 18.6875 220.811 19.026 222.041 19.7031C223.28 20.3802 224.239 21.3906 224.916 22.7344C225.603 24.0677 225.947 25.7344 225.947 27.7344V43H221.275V28.2969C221.275 26.5365 220.822 25.1719 219.916 24.2031C219.009 23.224 217.749 22.7344 216.134 22.7344C215.03 22.7344 214.041 22.9687 213.166 23.4375C212.301 23.9062 211.619 24.5937 211.119 25.5C210.629 26.3958 210.384 27.4792 210.384 28.75Z" fill="#0F2544"/>
<path d="M19.63 85.1522L8.4575 96.3234L3.05254 90.9185L0 93.971L8.38737 102.358L8.39093 102.356L8.39331 102.358L22.6147 88.137L19.63 85.1522Z" fill="#60A1E2"/>
<path d="M59.0335 79.0054C57.9292 77.9641 56.6882 77.1986 55.3046 76.7101C53.9209 76.2203 52.485 75.9755 50.9932 75.9755C48.5695 75.9755 46.456 76.546 44.654 77.6884C42.8495 78.8295 41.4564 80.4188 40.4698 82.455C39.482 84.4912 38.9899 86.8448 38.9899 89.517C38.9899 92.1891 39.4903 94.5748 40.4924 96.579C41.4956 98.5831 42.928 100.138 44.793 101.241C46.6569 102.345 48.8714 102.896 51.4342 102.896C53.2993 102.896 54.9646 102.612 56.4338 102.045C57.903 101.478 59.1298 100.681 60.1176 99.6553C61.103 98.6294 61.8067 97.4491 62.2263 96.1118L57.4002 94.9695C57.1042 95.7778 56.6751 96.4577 56.1081 97.0093C55.5399 97.5608 54.8683 97.9733 54.0921 98.2455C53.3147 98.5177 52.4458 98.6532 51.483 98.6532C50.0209 98.6532 48.7395 98.3382 47.6376 97.7094C46.5321 97.0806 45.675 96.1475 45.0617 94.9124C44.5089 93.7998 44.2189 92.4518 44.163 90.8923H62.6233V89.0748C62.6233 86.7129 62.3 84.704 61.6557 83.0505C61.0103 81.3959 60.1378 80.0479 59.0335 79.0066V79.0054ZM44.9452 84.0276C45.4813 82.8853 46.2611 81.9653 47.2869 81.2651C48.3127 80.5662 49.5466 80.2167 50.9932 80.2167C52.4398 80.2167 53.6689 80.5578 54.6401 81.2425C55.6113 81.926 56.3447 82.8782 56.8427 84.0978C57.2041 84.9869 57.4311 85.9794 57.5298 87.0695H44.1749C44.2534 85.9854 44.503 84.9691 44.944 84.0276H44.9452Z" fill="#0F2544"/>
<path d="M78.846 75.9291C77.3233 75.9291 75.9635 76.3333 74.7676 77.1416C73.5718 77.9487 72.7314 79.0684 72.25 80.4972H71.9707V76.3012H67.0067V102.358H72.1335V86.5334C72.1335 85.3839 72.3974 84.37 72.9264 83.4915C73.4541 82.6143 74.1923 81.9272 75.1397 81.4292C76.0883 80.9323 77.1521 80.6838 78.3337 80.6838C78.8781 80.6838 79.413 80.7148 79.942 80.7766C80.471 80.8396 80.8287 80.9014 81.0142 80.9632V76.0682C80.7348 76.0218 80.3854 75.9862 79.9658 75.9636C79.545 75.9398 79.1729 75.9279 78.846 75.9279V75.9291Z" fill="#0F2544"/>
<path d="M96.3792 98.2562C95.9442 98.3192 95.5947 98.3489 95.3308 98.3489C94.3192 98.3489 93.5941 98.104 93.1519 97.6155C92.7074 97.1258 92.4863 96.3602 92.4863 95.3201V80.4735H97.6844V76.3012H92.4863V70.1022H87.3595V76.3012H83.5604V80.4735H87.3595V95.7397C87.3595 97.9471 88.0121 99.6588 89.3172 100.878C90.6224 102.099 92.4554 102.708 94.8173 102.708C95.4235 102.708 96.0369 102.665 96.6586 102.579C97.2802 102.494 97.8615 102.358 98.4071 102.171L97.4966 98.0684C97.1863 98.1314 96.8131 98.1932 96.378 98.255L96.3792 98.2562Z" fill="#0F2544"/>
<path d="M104.918 66.233C104.032 66.233 103.274 66.529 102.644 67.1186C102.015 67.7094 101.7 68.4321 101.7 69.2868C101.7 70.1414 102.015 70.8214 102.644 71.4193C103.273 72.0172 104.032 72.3167 104.918 72.3167C105.803 72.3167 106.564 72.0219 107.201 71.4312C107.838 70.8404 108.157 70.126 108.157 69.288C108.157 68.4499 107.838 67.7106 107.201 67.1198C106.565 66.529 105.803 66.2342 104.918 66.2342V66.233Z" fill="#0F2544"/>
<path d="M107.458 76.3011H102.33V102.358H107.458V76.3011Z" fill="#0F2544"/>
<path d="M122.062 71.3836C122.605 70.7773 123.483 70.4742 124.696 70.4742C125.24 70.4742 125.694 70.517 126.059 70.6026C126.424 70.6882 126.732 70.769 126.979 70.8475L128.168 66.6989C127.827 66.5753 127.286 66.4279 126.549 66.2568C125.811 66.0868 124.92 66 123.88 66C122.512 66 121.238 66.2722 120.058 66.8154C118.877 67.3599 117.926 68.1753 117.202 69.2629C116.48 70.3506 116.119 71.7021 116.119 73.3175V76.3011H111.177V80.4734H116.119V102.358H121.245V80.4734H127.072V76.3011H121.245V74.0177C121.245 72.8682 121.517 71.9898 122.062 71.3836Z" fill="#0F2544"/>
<path d="M134.7 66.233C133.815 66.233 133.056 66.529 132.426 67.1186C131.798 67.7094 131.483 68.4321 131.483 69.2868C131.483 70.1414 131.798 70.8214 132.426 71.4193C133.055 72.0172 133.815 72.3167 134.7 72.3167C135.586 72.3167 136.347 72.0219 136.984 71.4312C137.621 70.8404 137.939 70.126 137.939 69.288C137.939 68.4499 137.621 67.7106 136.984 67.1198C136.348 66.529 135.586 66.2342 134.7 66.2342V66.233Z" fill="#0F2544"/>
<path d="M137.24 76.3011H132.112V102.358H137.24V76.3011Z" fill="#0F2544"/>
<path d="M162.456 79.0054C161.35 77.9641 160.109 77.1986 158.726 76.7101C157.343 76.2203 155.906 75.9755 154.414 75.9755C151.991 75.9755 149.877 76.546 148.075 77.6884C146.272 78.8295 144.878 80.4188 143.891 82.455C142.903 84.4912 142.411 86.8448 142.411 89.517C142.411 92.1891 142.913 94.5748 143.915 96.579C144.917 98.5831 146.35 100.138 148.214 101.241C150.078 102.345 152.293 102.896 154.857 102.896C156.722 102.896 158.387 102.612 159.856 102.045C161.324 101.478 162.551 100.681 163.539 99.6553C164.527 98.6294 165.229 97.4491 165.647 96.1118L160.823 94.9695C160.527 95.7778 160.096 96.4577 159.529 97.0093C158.962 97.5608 158.289 97.9733 157.514 98.2455C156.736 98.5177 155.867 98.6532 154.904 98.6532C153.443 98.6532 152.161 98.3382 151.059 97.7094C149.954 97.0806 149.096 96.1475 148.484 94.9124C147.93 93.7998 147.641 92.4518 147.585 90.8923H166.044V89.0748C166.044 86.7129 165.722 84.704 165.077 83.0505C164.433 81.3959 163.559 80.0479 162.456 79.0066V79.0054ZM148.366 84.0276C148.902 82.8853 149.683 81.9653 150.708 81.2651C151.734 80.5662 152.969 80.2167 154.414 80.2167C155.86 80.2167 157.09 80.5578 158.062 81.2425C159.032 81.926 159.767 82.8782 160.265 84.0978C160.626 84.9869 160.853 85.9794 160.951 87.0695H147.597C147.675 85.9854 147.924 84.9691 148.365 84.0276H148.366Z" fill="#0F2544"/>
<path d="M188.803 67.6321V80.5436H188.524C188.228 80.0004 187.802 79.3704 187.243 78.656C186.683 77.9416 185.91 77.3163 184.923 76.7802C183.936 76.2441 182.635 75.9767 181.019 75.9767C178.936 75.9767 177.072 76.5056 175.425 77.5612C173.778 78.6179 172.481 80.1478 171.533 82.1531C170.584 84.1572 170.111 86.5738 170.111 89.4017C170.111 92.2296 170.577 94.6034 171.509 96.6158C172.441 98.6282 173.731 100.174 175.378 101.253C177.025 102.333 178.904 102.873 181.019 102.873C182.589 102.873 183.87 102.606 184.864 102.069C185.859 101.533 186.643 100.908 187.218 100.193C187.793 99.4782 188.228 98.841 188.523 98.2823H188.942V102.361H193.931V67.6321H188.803ZM188.116 94.1196C187.596 95.4949 186.834 96.5706 185.832 97.3468C184.828 98.1242 183.598 98.5129 182.137 98.5129C180.676 98.5129 179.419 98.1088 178.407 97.3017C177.398 96.4946 176.637 95.3986 176.124 94.015C175.611 92.6325 175.353 91.0789 175.353 89.3529C175.353 87.627 175.605 86.1102 176.112 84.7503C176.617 83.3905 177.371 82.3147 178.373 81.5219C179.375 80.7302 180.627 80.3332 182.136 80.3332C183.644 80.3332 184.85 80.71 185.853 81.4636C186.856 82.2173 187.612 83.2669 188.126 84.6101C188.638 85.9545 188.896 87.5354 188.896 89.3529C188.896 91.1704 188.636 92.7443 188.115 94.1196H188.116Z" fill="#0F2544"/>
<path d="M6.53059 87.4404L8.45745 89.3672L11.1011 86.7236C11.0607 86.1708 11.0286 85.6098 11.0286 85.0178C11.0286 82.2208 11.4791 79.8554 12.3801 77.9214C13.2811 75.9862 14.5197 74.5182 16.0983 73.5161C17.6745 72.514 19.4575 72.0136 21.4474 72.0136C22.5339 72.0136 23.568 72.161 24.5463 72.4558C25.5258 72.7518 26.4114 73.194 27.2042 73.7847C27.9959 74.3755 28.6687 75.0935 29.2202 75.941C29.7706 76.7874 30.1545 77.7633 30.3732 78.8664H35.7104C35.4145 77.0334 34.8522 75.3942 34.0201 73.9488C33.1892 72.5045 32.1408 71.2766 30.8749 70.2662C29.6065 69.2558 28.1706 68.4868 26.5623 67.959C24.954 67.4312 23.2328 67.1673 21.3999 67.1673C18.402 67.1673 15.7215 67.8817 13.3608 69.3105C10.9977 70.7405 9.14213 72.7874 7.79059 75.4525C6.43787 78.1175 5.7627 81.3055 5.7627 85.019C5.7627 85.6181 5.80905 86.1815 5.84471 86.7533L6.53178 87.4404H6.53059Z" fill="#0F2544"/>
<path d="M29.2204 94.0387C28.6676 94.8934 27.9924 95.6126 27.1925 96.195C26.3913 96.7775 25.5057 97.2209 24.5358 97.5228C23.5646 97.8259 22.5352 97.9769 21.4475 97.9769C20.8996 97.9769 20.3718 97.9305 19.8559 97.8544L15.8572 101.853C17.5689 102.481 19.4078 102.826 21.4 102.826C23.3922 102.826 25.0802 102.543 26.7039 101.976C28.3277 101.409 29.7683 100.597 31.0272 99.54C32.286 98.4832 33.3189 97.2446 34.1261 95.8218C34.9344 94.4001 35.4717 92.8346 35.7355 91.1253H30.3746C30.1559 92.2129 29.7719 93.1841 29.2215 94.0387H29.2204Z" fill="#0F2544"/>
</svg>
