<svg width="39" height="43" viewBox="0 0 39 43" fill="none" xmlns="http://www.w3.org/2000/svg">
<path d="M21.1876 19.4048L9.12847 31.4554L3.29569 25.6251L0 28.9158L9.05331 37.9654H9.05689H9.06048L24.4082 22.624L21.1876 19.4048Z" fill="#60A1E2"/>
<path d="M7.04894 21.8729L9.12798 23.9511L11.98 21.1003C11.937 20.5029 11.9012 19.8984 11.9012 19.2617C11.9012 16.2464 12.3879 13.6924 13.3612 11.6071C14.3345 9.51818 15.6693 7.93721 17.3762 6.8534C19.0759 5.77317 21.0011 5.23304 23.1517 5.23304C24.3254 5.23304 25.4418 5.39399 26.4939 5.70876C27.5531 6.0271 28.5085 6.50641 29.3637 7.14311C30.219 7.7798 30.9454 8.55599 31.5394 9.46811C32.1334 10.3802 32.5485 11.4354 32.7847 12.623H38.5459C38.2274 10.6449 37.6191 8.87791 36.7209 7.31837C35.8227 5.75883 34.692 4.43538 33.325 3.34441C31.9545 2.25345 30.4051 1.42362 28.6695 0.85489C26.934 0.286159 25.0768 0 23.098 0C19.8631 0 16.9682 0.772605 14.4204 2.31426C11.869 3.85591 9.8687 6.06646 8.40872 8.94231C6.94874 11.8182 6.21875 15.2592 6.21875 19.2653C6.21875 19.9127 6.26885 20.5208 6.30821 21.136L7.04894 21.8765V21.8729Z" fill="white"/>
<path d="M32.7814 25.8469C32.5452 27.0202 32.1301 28.0682 31.5361 28.9911C30.9385 29.9139 30.2121 30.6901 29.3462 31.3161C28.4802 31.9456 27.5248 32.4213 26.4799 32.7504C25.4314 33.0759 24.3185 33.2404 23.1484 33.2404C22.558 33.2404 21.9854 33.1903 21.4308 33.1081L17.1152 37.4218C18.9617 38.0979 20.9477 38.4699 23.0983 38.4699C25.2489 38.4699 27.0703 38.1658 28.8201 37.5542C30.5735 36.9425 32.1266 36.0662 33.4863 34.9252C34.8461 33.7841 35.959 32.4499 36.8321 30.9154C37.7053 29.3809 38.2814 27.6926 38.5676 25.8469H32.7814Z" fill="white"/>
</svg>
