<svg width="334" height="117" viewBox="0 0 334 117" fill="none" xmlns="http://www.w3.org/2000/svg">
<path d="M25.9688 19.4062C25.8021 17.9271 25.1146 16.7812 23.9062 15.9687C22.6979 15.1458 21.1771 14.7344 19.3438 14.7344C18.0313 14.7344 16.8958 14.9427 15.9375 15.3594C14.9792 15.7656 14.2344 16.3281 13.7031 17.0469C13.1823 17.7552 12.9219 18.5625 12.9219 19.4688C12.9219 20.2292 13.099 20.8854 13.4531 21.4375C13.8177 21.9896 14.2917 22.4531 14.875 22.8281C15.4688 23.1927 16.1042 23.5 16.7813 23.75C17.4583 23.9896 18.1094 24.1875 18.7344 24.3437L21.8594 25.1562C22.8802 25.4062 23.9271 25.7448 25 26.1719C26.0729 26.599 27.0677 27.1615 27.9844 27.8594C28.901 28.5573 29.6406 29.4219 30.2031 30.4531C30.776 31.4844 31.0625 32.7187 31.0625 34.1562C31.0625 35.9687 30.5938 37.5781 29.6562 38.9844C28.7292 40.3906 27.3802 41.5 25.6094 42.3125C23.849 43.125 21.7188 43.5313 19.2187 43.5313C16.8229 43.5313 14.75 43.151 13 42.3906C11.25 41.6302 9.88021 40.5521 8.89063 39.1562C7.90104 37.75 7.35417 36.0833 7.25 34.1562H12.0938C12.1875 35.3125 12.5625 36.276 13.2188 37.0469C13.8854 37.8073 14.7344 38.375 15.7656 38.75C16.8073 39.1146 17.9479 39.2969 19.1875 39.2969C20.5521 39.2969 21.7656 39.0833 22.8281 38.6562C23.901 38.2187 24.7448 37.6146 25.3594 36.8437C25.974 36.0625 26.2813 35.151 26.2813 34.1094C26.2813 33.1615 26.0104 32.3854 25.4688 31.7812C24.9375 31.1771 24.2135 30.6771 23.2969 30.2812C22.3906 29.8854 21.3646 29.5365 20.2188 29.2344L16.4375 28.2031C13.875 27.5052 11.8438 26.4792 10.3438 25.125C8.85417 23.7708 8.10938 21.9792 8.10938 19.75C8.10938 17.9062 8.60938 16.2969 9.60938 14.9219C10.6094 13.5469 11.9635 12.4792 13.6719 11.7188C15.3802 10.9479 17.3073 10.5625 19.4531 10.5625C21.6198 10.5625 23.5313 10.9427 25.1875 11.7031C26.8542 12.4635 28.1667 13.5104 29.125 14.8437C30.0833 16.1667 30.5833 17.6875 30.625 19.4062H25.9688ZM35.107 43V19H39.7789V43H35.107ZM37.4664 15.2969C36.6539 15.2969 35.956 15.026 35.3727 14.4844C34.7997 13.9323 34.5133 13.276 34.5133 12.5156C34.5133 11.7448 34.7997 11.0885 35.3727 10.5469C35.956 9.99479 36.6539 9.71875 37.4664 9.71875C38.2789 9.71875 38.9716 9.99479 39.5445 10.5469C40.1279 11.0885 40.4195 11.7448 40.4195 12.5156C40.4195 13.276 40.1279 13.9323 39.5445 14.4844C38.9716 15.026 38.2789 15.2969 37.4664 15.2969ZM54.7766 52.5C52.8703 52.5 51.2297 52.25 49.8547 51.75C48.4901 51.25 47.3755 50.5885 46.5109 49.7656C45.6464 48.9427 45.0005 48.0417 44.5734 47.0625L48.5891 45.4062C48.8703 45.8646 49.2453 46.349 49.7141 46.8594C50.1932 47.3802 50.8391 47.8229 51.6516 48.1875C52.4745 48.5521 53.5318 48.7344 54.8234 48.7344C56.5943 48.7344 58.0578 48.3021 59.2141 47.4375C60.3703 46.5833 60.9484 45.2187 60.9484 43.3438V38.625H60.6516C60.3703 39.1354 59.9641 39.7031 59.4328 40.3281C58.912 40.9531 58.1932 41.4948 57.2766 41.9531C56.3599 42.4115 55.1672 42.6406 53.6984 42.6406C51.8026 42.6406 50.0943 42.1979 48.5734 41.3125C47.063 40.4167 45.8651 39.099 44.9797 37.3594C44.1047 35.6094 43.6672 33.4583 43.6672 30.9062C43.6672 28.3542 44.0995 26.1667 44.9641 24.3437C45.8391 22.5208 47.037 21.125 48.5578 20.1563C50.0786 19.1771 51.8026 18.6875 53.7297 18.6875C55.2193 18.6875 56.4224 18.9375 57.3391 19.4375C58.2557 19.9271 58.9693 20.5 59.4797 21.1562C60.0005 21.8125 60.4016 22.3906 60.6828 22.8906H61.0266V19H65.6047V43.5313C65.6047 45.5938 65.1255 47.2865 64.1672 48.6094C63.2089 49.9323 61.912 50.9115 60.2766 51.5469C58.6516 52.1823 56.8182 52.5 54.7766 52.5ZM54.7297 38.7656C56.0734 38.7656 57.2089 38.4531 58.1359 37.8281C59.0734 37.1927 59.7818 36.2865 60.2609 35.1094C60.7505 33.9219 60.9953 32.5 60.9953 30.8438C60.9953 29.2292 60.7557 27.8073 60.2766 26.5781C59.7974 25.349 59.0943 24.3906 58.1672 23.7031C57.2401 23.0052 56.0943 22.6562 54.7297 22.6562C53.3234 22.6562 52.1516 23.0208 51.2141 23.75C50.2766 24.4687 49.5682 25.4479 49.0891 26.6875C48.6203 27.9271 48.3859 29.3125 48.3859 30.8438C48.3859 32.4167 48.6255 33.7969 49.1047 34.9844C49.5839 36.1719 50.2922 37.099 51.2297 37.7656C52.1776 38.4323 53.3443 38.7656 54.7297 38.7656ZM75.1922 28.75V43H70.5203V19H75.0047V22.9062H75.3016C75.8536 21.6354 76.7182 20.6146 77.8953 19.8437C79.0828 19.0729 80.5776 18.6875 82.3797 18.6875C84.0151 18.6875 85.4474 19.0313 86.6766 19.7188C87.9057 20.3958 88.8589 21.4062 89.5359 22.75C90.213 24.0937 90.5516 25.7552 90.5516 27.7344V43H85.8797V28.2969C85.8797 26.5573 85.4266 25.1979 84.5203 24.2187C83.6141 23.2292 82.3693 22.7344 80.7859 22.7344C79.7026 22.7344 78.7391 22.9687 77.8953 23.4375C77.062 23.9062 76.4005 24.5937 75.9109 25.5C75.4318 26.3958 75.1922 27.4792 75.1922 28.75ZM105.762 43V19H110.434V43H105.762ZM108.121 15.2969C107.309 15.2969 106.611 15.026 106.027 14.4844C105.454 13.9323 105.168 13.276 105.168 12.5156C105.168 11.7448 105.454 11.0885 106.027 10.5469C106.611 9.99479 107.309 9.71875 108.121 9.71875C108.934 9.71875 109.626 9.99479 110.199 10.5469C110.783 11.0885 111.074 11.7448 111.074 12.5156C111.074 13.276 110.783 13.9323 110.199 14.4844C109.626 15.026 108.934 15.2969 108.121 15.2969ZM120.041 28.75V43H115.369V19H119.853V22.9062H120.15C120.702 21.6354 121.567 20.6146 122.744 19.8437C123.931 19.0729 125.426 18.6875 127.228 18.6875C128.864 18.6875 130.296 19.0313 131.525 19.7188C132.754 20.3958 133.707 21.4062 134.384 22.75C135.061 24.0937 135.4 25.7552 135.4 27.7344V43H130.728V28.2969C130.728 26.5573 130.275 25.1979 129.369 24.2187C128.463 23.2292 127.218 22.7344 125.634 22.7344C124.551 22.7344 123.588 22.9687 122.744 23.4375C121.91 23.9062 121.249 24.5937 120.759 25.5C120.28 26.3958 120.041 27.4792 120.041 28.75ZM155.813 43L148.751 19H153.579L158.282 36.625H158.516L163.235 19H168.063L172.751 36.5469H172.985L177.657 19H182.485L175.438 43H170.673L165.798 25.6719H165.438L160.563 43H155.813ZM185.569 43V19H190.241V43H185.569ZM187.928 15.2969C187.116 15.2969 186.418 15.026 185.834 14.4844C185.261 13.9323 184.975 13.276 184.975 12.5156C184.975 11.7448 185.261 11.0885 185.834 10.5469C186.418 9.99479 187.116 9.71875 187.928 9.71875C188.741 9.71875 189.433 9.99479 190.006 10.5469C190.59 11.0885 190.881 11.7448 190.881 12.5156C190.881 13.276 190.59 13.9323 190.006 14.4844C189.433 15.026 188.741 15.2969 187.928 15.2969ZM206.379 19V22.75H193.27V19H206.379ZM196.785 13.25H201.457V35.9531C201.457 36.8594 201.592 37.5417 201.863 38C202.134 38.4479 202.483 38.7552 202.91 38.9219C203.348 39.0781 203.822 39.1562 204.332 39.1562C204.707 39.1562 205.035 39.1302 205.316 39.0781C205.598 39.026 205.816 38.9844 205.973 38.9531L206.816 42.8125C206.546 42.9167 206.16 43.0208 205.66 43.125C205.16 43.2396 204.535 43.3021 203.785 43.3125C202.556 43.3333 201.41 43.1146 200.348 42.6562C199.285 42.1979 198.426 41.4896 197.77 40.5312C197.113 39.5729 196.785 38.3698 196.785 36.9219V13.25ZM215.384 28.75V43H210.712V11H215.322V22.9062H215.619C216.181 21.6146 217.041 20.5885 218.197 19.8281C219.353 19.0677 220.864 18.6875 222.728 18.6875C224.374 18.6875 225.811 19.026 227.041 19.7031C228.28 20.3802 229.239 21.3906 229.916 22.7344C230.603 24.0677 230.947 25.7344 230.947 27.7344V43H226.275V28.2969C226.275 26.5365 225.822 25.1719 224.916 24.2031C224.009 23.224 222.749 22.7344 221.134 22.7344C220.03 22.7344 219.041 22.9687 218.166 23.4375C217.301 23.9062 216.619 24.5937 216.119 25.5C215.629 26.3958 215.384 27.4792 215.384 28.75ZM35.0938 75.4062H30.2188C30.0313 74.3646 29.6823 73.4479 29.1719 72.6562C28.6615 71.8646 28.0365 71.1927 27.2969 70.6406C26.5573 70.0885 25.7292 69.6719 24.8125 69.3906C23.9063 69.1094 22.9427 68.9687 21.9219 68.9687C20.0781 68.9687 18.4271 69.4323 16.9688 70.3594C15.5208 71.2865 14.375 72.6458 13.5313 74.4375C12.6979 76.2292 12.2812 78.4167 12.2812 81C12.2812 83.6042 12.6979 85.8021 13.5313 87.5937C14.375 89.3854 15.526 90.7396 16.9844 91.6562C18.4427 92.5729 20.0833 93.0312 21.9063 93.0312C22.9167 93.0312 23.875 92.8958 24.7813 92.625C25.6979 92.3437 26.526 91.9323 27.2656 91.3906C28.0052 90.849 28.6302 90.1875 29.1406 89.4062C29.6615 88.6146 30.0208 87.7083 30.2188 86.6875L35.0938 86.7031C34.8333 88.276 34.3281 89.724 33.5781 91.0469C32.8385 92.3594 31.8854 93.4948 30.7188 94.4531C29.5625 95.401 28.2396 96.1354 26.75 96.6562C25.2604 97.1771 23.6354 97.4375 21.875 97.4375C19.1042 97.4375 16.6354 96.7812 14.4688 95.4687C12.3021 94.1458 10.5938 92.2552 9.34375 89.7969C8.10417 87.3385 7.48438 84.4062 7.48438 81C7.48438 77.5833 8.10938 74.651 9.35938 72.2031C10.6094 69.7448 12.3177 67.8594 14.4844 66.5469C16.651 65.224 19.1146 64.5625 21.875 64.5625C23.5729 64.5625 25.1563 64.8073 26.625 65.2969C28.1042 65.776 29.4323 66.4844 30.6094 67.4219C31.7865 68.349 32.7604 69.4844 33.5312 70.8281C34.3021 72.1615 34.8229 73.6875 35.0938 75.4062ZM49.4898 97.4844C47.1253 97.4844 45.0888 96.9792 43.3805 95.9688C41.6826 94.9479 40.3701 93.5156 39.443 91.6719C38.5263 89.8177 38.068 87.6458 38.068 85.1562C38.068 82.6979 38.5263 80.5312 39.443 78.6562C40.3701 76.7812 41.6617 75.3177 43.318 74.2656C44.9846 73.2135 46.9326 72.6875 49.1617 72.6875C50.5159 72.6875 51.8284 72.9115 53.0992 73.3594C54.3701 73.8073 55.5107 74.5104 56.5211 75.4687C57.5315 76.4271 58.3284 77.6719 58.9117 79.2031C59.4951 80.724 59.7867 82.5729 59.7867 84.75V86.4062H40.7086V82.9062H55.2086C55.2086 81.6771 54.9586 80.5885 54.4586 79.6406C53.9586 78.6823 53.2555 77.9271 52.3492 77.375C51.4534 76.8229 50.4013 76.5469 49.193 76.5469C47.8805 76.5469 46.7346 76.8698 45.7555 77.5156C44.7867 78.151 44.0367 78.9844 43.5055 80.0156C42.9846 81.0365 42.7242 82.1458 42.7242 83.3438V86.0781C42.7242 87.6823 43.0055 89.0469 43.568 90.1719C44.1409 91.2969 44.9378 92.1562 45.9586 92.75C46.9794 93.3333 48.1721 93.625 49.5367 93.625C50.4221 93.625 51.2294 93.5 51.9586 93.25C52.6878 92.9896 53.318 92.6042 53.8492 92.0937C54.3805 91.5833 54.7867 90.9531 55.068 90.2031L59.4898 91C59.1357 92.3021 58.5003 93.4427 57.5836 94.4219C56.6773 95.3906 55.5367 96.1458 54.1617 96.6875C52.7971 97.2188 51.2398 97.4844 49.4898 97.4844ZM63.6203 97V73H68.1359V76.8125H68.3859C68.8234 75.5208 69.5943 74.5052 70.6984 73.7656C71.813 73.0156 73.0734 72.6406 74.4797 72.6406C74.7714 72.6406 75.1151 72.651 75.5109 72.6719C75.9172 72.6927 76.2349 72.7187 76.4641 72.75V77.2187C76.2766 77.1667 75.9432 77.1094 75.4641 77.0469C74.9849 76.974 74.5057 76.9375 74.0266 76.9375C72.9224 76.9375 71.938 77.1719 71.0734 77.6406C70.2193 78.099 69.5422 78.7396 69.0422 79.5625C68.5422 80.375 68.2922 81.3021 68.2922 82.3437V97H63.6203ZM91.7781 73V76.75H78.6687V73H91.7781ZM82.1844 67.25H86.8562V89.9531C86.8562 90.8594 86.9917 91.5417 87.2625 92C87.5333 92.4479 87.8823 92.7552 88.3094 92.9219C88.7469 93.0781 89.2208 93.1562 89.7312 93.1562C90.1062 93.1562 90.4344 93.1302 90.7156 93.0781C90.9969 93.026 91.2156 92.9844 91.3719 92.9531L92.2156 96.8125C91.9448 96.9167 91.5594 97.0208 91.0594 97.125C90.5594 97.2396 89.9344 97.3021 89.1844 97.3125C87.9552 97.3333 86.8094 97.1146 85.7469 96.6562C84.6844 96.1979 83.825 95.4896 83.1687 94.5312C82.5125 93.5729 82.1844 92.3698 82.1844 90.9219V67.25ZM95.5961 97V73H100.268V97H95.5961ZM97.9555 69.2969C97.143 69.2969 96.4451 69.026 95.8617 68.4844C95.2888 67.9323 95.0023 67.276 95.0023 66.5156C95.0023 65.7448 95.2888 65.0885 95.8617 64.5469C96.4451 63.9948 97.143 63.7187 97.9555 63.7187C98.768 63.7187 99.4607 63.9948 100.034 64.5469C100.617 65.0885 100.909 65.7448 100.909 66.5156C100.909 67.276 100.617 67.9323 100.034 68.4844C99.4607 69.026 98.768 69.2969 97.9555 69.2969ZM116.625 73V76.75H103.063V73H116.625ZM106.781 97V70.2187C106.781 68.7187 107.109 67.474 107.766 66.4844C108.422 65.4844 109.292 64.7396 110.375 64.25C111.458 63.75 112.635 63.5 113.906 63.5C114.844 63.5 115.646 63.5781 116.313 63.7344C116.979 63.8802 117.474 64.0156 117.797 64.1406L116.703 67.9219C116.484 67.8594 116.203 67.7865 115.859 67.7031C115.516 67.6094 115.099 67.5625 114.609 67.5625C113.474 67.5625 112.661 67.8437 112.172 68.4062C111.693 68.9687 111.453 69.7812 111.453 70.8437V97H106.781ZM120.095 97V73H124.767V97H120.095ZM122.455 69.2969C121.642 69.2969 120.944 69.026 120.361 68.4844C119.788 67.9323 119.502 67.276 119.502 66.5156C119.502 65.7448 119.788 65.0885 120.361 64.5469C120.944 63.9948 121.642 63.7187 122.455 63.7187C123.267 63.7187 123.96 63.9948 124.533 64.5469C125.116 65.0885 125.408 65.7448 125.408 66.5156C125.408 67.276 125.116 67.9323 124.533 68.4844C123.96 69.026 123.267 69.2969 122.455 69.2969ZM140.046 97.4844C137.682 97.4844 135.645 96.9792 133.937 95.9688C132.239 94.9479 130.926 93.5156 129.999 91.6719C129.083 89.8177 128.624 87.6458 128.624 85.1562C128.624 82.6979 129.083 80.5312 129.999 78.6562C130.926 76.7812 132.218 75.3177 133.874 74.2656C135.541 73.2135 137.489 72.6875 139.718 72.6875C141.072 72.6875 142.385 72.9115 143.655 73.3594C144.926 73.8073 146.067 74.5104 147.077 75.4687C148.088 76.4271 148.885 77.6719 149.468 79.2031C150.051 80.724 150.343 82.5729 150.343 84.75V86.4062H131.265V82.9062H145.765C145.765 81.6771 145.515 80.5885 145.015 79.6406C144.515 78.6823 143.812 77.9271 142.905 77.375C142.01 76.8229 140.958 76.5469 139.749 76.5469C138.437 76.5469 137.291 76.8698 136.312 77.5156C135.343 78.151 134.593 78.9844 134.062 80.0156C133.541 81.0365 133.28 82.1458 133.28 83.3438V86.0781C133.28 87.6823 133.562 89.0469 134.124 90.1719C134.697 91.2969 135.494 92.1562 136.515 92.75C137.536 93.3333 138.728 93.625 140.093 93.625C140.978 93.625 141.786 93.5 142.515 93.25C143.244 92.9896 143.874 92.6042 144.405 92.0937C144.937 91.5833 145.343 90.9531 145.624 90.2031L150.046 91C149.692 92.3021 149.057 93.4427 148.14 94.4219C147.234 95.3906 146.093 96.1458 144.718 96.6875C143.353 97.2188 141.796 97.4844 140.046 97.4844ZM163.161 97.4688C161.223 97.4688 159.494 96.974 157.973 95.9844C156.463 94.9844 155.276 93.5625 154.411 91.7187C153.557 89.8646 153.13 87.6406 153.13 85.0469C153.13 82.4531 153.562 80.2344 154.427 78.3906C155.302 76.5469 156.499 75.1354 158.02 74.1563C159.541 73.1771 161.265 72.6875 163.192 72.6875C164.682 72.6875 165.88 72.9375 166.786 73.4375C167.703 73.9271 168.411 74.5 168.911 75.1562C169.421 75.8125 169.817 76.3906 170.098 76.8906H170.38V65H175.052V97H170.489V93.2656H170.098C169.817 93.776 169.411 94.3594 168.88 95.0156C168.359 95.6719 167.64 96.2448 166.723 96.7344C165.807 97.224 164.619 97.4688 163.161 97.4688ZM164.192 93.4844C165.536 93.4844 166.671 93.1302 167.598 92.4219C168.536 91.7031 169.244 90.7083 169.723 89.4375C170.213 88.1667 170.458 86.6875 170.458 85C170.458 83.3333 170.218 81.875 169.739 80.625C169.26 79.375 168.557 78.401 167.63 77.7031C166.703 77.0052 165.557 76.6562 164.192 76.6562C162.786 76.6562 161.614 77.0208 160.677 77.75C159.739 78.4792 159.031 79.474 158.552 80.7344C158.083 81.9948 157.848 83.4167 157.848 85C157.848 86.6042 158.088 88.0469 158.567 89.3281C159.046 90.6094 159.755 91.625 160.692 92.375C161.64 93.1146 162.807 93.4844 164.192 93.4844Z" fill="white"/>
<rect y="57" width="211" height="60" fill="#3E7053"/>
<path d="M21.6983 81.8994L10.5259 93.0707L5.1209 87.6657L2.06836 90.7183L10.4557 99.1056L10.4593 99.1033L10.4617 99.1056L24.6831 84.8842L21.6983 81.8994Z" fill="#2DCD8B"/>
<path d="M61.1022 75.7526C59.9979 74.7113 58.7569 73.9458 57.3733 73.4573C55.9897 72.9675 54.5537 72.7227 53.0619 72.7227C50.6382 72.7227 48.5247 73.2932 46.7227 74.4356C44.9183 75.5767 43.5251 77.166 42.5385 79.2022C41.5507 81.2384 41.0586 83.592 41.0586 86.2642C41.0586 88.9363 41.559 91.322 42.5611 93.3261C43.5643 95.3303 44.9967 96.8851 46.8618 97.9882C48.7256 99.0925 50.9401 99.6428 53.5029 99.6428C55.368 99.6428 57.0333 99.3587 58.5026 98.7917C59.9718 98.2247 61.1985 97.4283 62.1863 96.4025C63.1717 95.3766 63.8754 94.1963 64.295 92.859L59.469 91.7167C59.173 92.525 58.7439 93.2049 58.1769 93.7564C57.6087 94.308 56.9371 94.7205 56.1608 94.9927C55.3834 95.2649 54.5145 95.4004 53.5517 95.4004C52.0896 95.4004 50.8082 95.0854 49.7063 94.4566C48.6008 93.8278 47.7438 92.8947 47.1304 91.6596C46.5777 90.547 46.2876 89.199 46.2318 87.6395H64.692V85.822C64.692 83.4601 64.3687 81.4512 63.7244 79.7977C63.079 78.1431 62.2065 76.7951 61.1022 75.7538V75.7526ZM47.0139 80.7748C47.55 79.6325 48.3298 78.7124 49.3556 78.0123C50.3815 77.3134 51.6153 76.9639 53.0619 76.9639C54.5086 76.9639 55.7377 77.305 56.7088 77.9897C57.68 78.6732 58.4134 79.6254 58.9115 80.8449C59.2728 81.7341 59.4999 82.7266 59.5985 83.8167H46.2436C46.3221 82.7326 46.5717 81.7163 47.0127 80.7748H47.0139Z" fill="white"/>
<path d="M80.9145 72.6762C79.3918 72.6762 78.0319 73.0804 76.8361 73.8887C75.6403 74.6958 74.7999 75.8156 74.3185 77.2444H74.0391V73.0483H69.0752V99.1055H74.202V83.2805C74.202 82.131 74.4659 81.1171 74.9948 80.2387C75.5226 79.3614 76.2608 78.6743 77.2082 78.1763C78.1568 77.6794 79.2206 77.431 80.4022 77.431C80.9466 77.431 81.4815 77.4619 82.0105 77.5237C82.5394 77.5867 82.8972 77.6485 83.0827 77.7103V72.8153C82.8033 72.769 82.4538 72.7333 82.0342 72.7107C81.6134 72.6869 81.2414 72.675 80.9145 72.675V72.6762Z" fill="white"/>
<path d="M98.4477 95.0034C98.0126 95.0664 97.6632 95.0961 97.3993 95.0961C96.3877 95.0961 95.6626 94.8512 95.2204 94.3627C94.7758 93.8729 94.5547 93.1074 94.5547 92.0673V77.2206H99.7529V73.0484H94.5547V66.8494H89.4279V73.0484H85.6289V77.2206H89.4279V92.4869C89.4279 94.6943 90.0805 96.406 91.3857 97.6256C92.6909 98.8464 94.5238 99.455 96.8858 99.455C97.492 99.455 98.1054 99.4122 98.727 99.3266C99.3487 99.2411 99.93 99.1055 100.476 98.9177L99.5651 94.8156C99.2548 94.8786 98.8816 94.9404 98.4465 95.0022L98.4477 95.0034Z" fill="white"/>
<path d="M106.986 62.9802C106.101 62.9802 105.342 63.2762 104.712 63.8658C104.084 64.4566 103.769 65.1793 103.769 66.034C103.769 66.8886 104.084 67.5686 104.712 68.1665C105.341 68.7644 106.101 69.0639 106.986 69.0639C107.872 69.0639 108.633 68.7691 109.27 68.1783C109.907 67.5876 110.225 66.8732 110.225 66.0351C110.225 65.1971 109.907 64.4578 109.27 63.867C108.634 63.2762 107.872 62.9814 106.986 62.9814V62.9802Z" fill="white"/>
<path d="M109.526 73.0483H104.398V99.1055H109.526V73.0483Z" fill="white"/>
<path d="M124.13 68.1307C124.673 67.5245 125.552 67.2214 126.764 67.2214C127.308 67.2214 127.763 67.2642 128.127 67.3498C128.492 67.4354 128.8 67.5162 129.048 67.5947L130.236 63.4461C129.895 63.3225 129.354 63.1751 128.617 63.0039C127.879 62.834 126.989 62.7472 125.949 62.7472C124.58 62.7472 123.306 63.0194 122.126 63.5626C120.945 64.107 119.994 64.9225 119.271 66.0101C118.548 67.0978 118.188 68.4493 118.188 70.0647V73.0483H113.245V77.2206H118.188V99.1055H123.313V77.2206H129.14V73.0483H123.313V70.7649C123.313 69.6154 123.585 68.737 124.13 68.1307Z" fill="white"/>
<path d="M136.769 62.9802C135.883 62.9802 135.125 63.2762 134.495 63.8658C133.866 64.4566 133.551 65.1793 133.551 66.034C133.551 66.8886 133.866 67.5686 134.495 68.1665C135.123 68.7644 135.883 69.0639 136.769 69.0639C137.654 69.0639 138.415 68.7691 139.052 68.1783C139.689 67.5876 140.008 66.8732 140.008 66.0351C140.008 65.1971 139.689 64.4578 139.052 63.867C138.416 63.2762 137.654 62.9814 136.769 62.9814V62.9802Z" fill="white"/>
<path d="M139.309 73.0483H134.181V99.1055H139.309V73.0483Z" fill="white"/>
<path d="M164.524 75.7526C163.419 74.7113 162.178 73.9458 160.794 73.4573C159.412 72.9675 157.975 72.7227 156.483 72.7227C154.059 72.7227 151.946 73.2932 150.144 74.4356C148.34 75.5767 146.946 77.166 145.959 79.2022C144.972 81.2384 144.479 83.592 144.479 86.2642C144.479 88.9363 144.981 91.322 145.983 93.3261C146.985 95.3303 148.419 96.8851 150.283 97.9882C152.147 99.0925 154.361 99.6428 156.925 99.6428C158.79 99.6428 160.455 99.3587 161.925 98.7917C163.393 98.2247 164.619 97.4283 165.607 96.4025C166.595 95.3766 167.298 94.1963 167.716 92.859L162.891 91.7167C162.595 92.525 162.165 93.2049 161.598 93.7564C161.031 94.308 160.358 94.7205 159.583 94.9927C158.804 95.2649 157.935 95.4004 156.973 95.4004C155.512 95.4004 154.229 95.0854 153.127 94.4566C152.023 93.8278 151.165 92.8947 150.552 91.6596C149.999 90.547 149.71 89.199 149.654 87.6395H168.113V85.822C168.113 83.4601 167.791 81.4512 167.145 79.7977C166.501 78.1431 165.627 76.7951 164.524 75.7538V75.7526ZM150.435 80.7748C150.971 79.6325 151.752 78.7124 152.777 78.0123C153.802 77.3134 155.037 76.9639 156.483 76.9639C157.928 76.9639 159.159 77.305 160.131 77.9897C161.101 78.6732 161.835 79.6254 162.334 80.8449C162.695 81.7341 162.922 82.7266 163.019 83.8167H149.666C149.743 82.7326 149.993 81.7163 150.434 80.7748H150.435Z" fill="white"/>
<path d="M190.872 64.3793V77.2908H190.592C190.296 76.7475 189.871 76.1175 189.311 75.4031C188.751 74.6887 187.979 74.0635 186.992 73.5274C186.004 72.9913 184.704 72.7238 183.087 72.7238C181.004 72.7238 179.141 73.2528 177.493 74.3084C175.847 75.3651 174.55 76.8949 173.601 78.9003C172.653 80.9044 172.18 83.321 172.18 86.1489C172.18 88.9767 172.646 91.3506 173.578 93.363C174.51 95.3754 175.799 96.9207 177.447 98.0001C179.093 99.0806 180.972 99.6202 183.087 99.6202C184.657 99.6202 185.939 99.3528 186.932 98.8167C187.927 98.2806 188.712 97.6553 189.286 96.9398C189.861 96.2253 190.296 95.5882 190.591 95.0295H191.011V99.1079H196V64.3793H190.872ZM190.185 90.8668C189.664 92.2421 188.902 93.3178 187.9 94.094C186.897 94.8714 185.667 95.2601 184.206 95.2601C182.745 95.2601 181.487 94.856 180.476 94.0489C179.466 93.2418 178.706 92.1458 178.192 90.7622C177.68 89.3797 177.422 87.8261 177.422 86.1001C177.422 84.3742 177.674 82.8574 178.18 81.4975C178.685 80.1377 179.439 79.0619 180.441 78.2691C181.443 77.4774 182.696 77.0804 184.204 77.0804C185.713 77.0804 186.918 77.4572 187.921 78.2108C188.925 78.9644 189.681 80.0141 190.194 81.3573C190.707 82.7017 190.964 84.2826 190.964 86.1001C190.964 87.9176 190.704 89.4914 190.184 90.8668H190.185Z" fill="white"/>
<path d="M8.59895 84.1876L10.5258 86.1144L13.1694 83.4708C13.129 82.9181 13.0969 82.357 13.0969 81.765C13.0969 78.9681 13.5474 76.6026 14.4485 74.6686C15.3495 72.7334 16.5881 71.2654 18.1667 70.2633C19.7429 69.2613 21.5259 68.7608 23.5158 68.7608C24.6022 68.7608 25.6364 68.9082 26.6147 69.203C27.5941 69.499 28.4797 69.9412 29.2726 70.532C30.0642 71.1227 30.737 71.8407 31.2886 72.6882C31.8389 73.5346 32.2229 74.5105 32.4416 75.6136H37.7788C37.4828 73.7806 36.9206 72.1414 36.0885 70.696C35.2576 69.2517 34.2092 68.0238 32.9432 67.0135C31.6749 66.0031 30.239 65.234 28.6307 64.7062C27.0224 64.1784 25.3012 63.9146 23.4682 63.9146C20.4704 63.9146 17.7899 64.629 15.4291 66.0578C13.066 67.4877 11.2105 69.5347 9.85895 72.1997C8.50623 74.8647 7.83105 78.0528 7.83105 81.7662C7.83105 82.3653 7.87741 82.9288 7.91307 83.5005L8.60013 84.1876H8.59895Z" fill="white"/>
<path d="M31.289 90.7859C30.7362 91.6406 30.0611 92.3597 29.2611 92.9422C28.4599 93.5246 27.5743 93.968 26.6044 94.2699C25.6332 94.5731 24.6038 94.724 23.5162 94.724C22.9682 94.724 22.4404 94.6777 21.9245 94.6016L17.9258 98.6003C19.6375 99.228 21.4764 99.5727 23.4686 99.5727C25.4609 99.5727 27.1488 99.2898 28.7725 98.7228C30.3963 98.1558 31.837 97.3439 33.0958 96.2871C34.3546 95.2304 35.3876 93.9918 36.1947 92.5689C37.003 91.1473 37.5403 89.5818 37.8042 87.8724H32.4432C32.2245 88.9601 31.8405 89.9312 31.2902 90.7859H31.289Z" fill="white"/>
</svg>
